<svg viewBox="0 0 359 83" version="1.1" xmlns="http://www.w3.org/2000/svg" xmlns:xlink="http://www.w3.org/1999/xlink">
    <defs>
        <polygon id="path-1" points="0.895 0 349.895 0 349.895 21.94 0.895 21.94"></polygon>
    </defs>
    <g id="test" stroke="none" stroke-width="1" fill="none" fill-rule="evenodd">
        <g id="davidson-logo_black+redbar">
            <g id="Group-3" transform="translate(2.000000, 61.000000)">
                <mask id="mask-2" fill="white">
                    <use xlink:href="#path-1"></use>
                </mask>
                <g id="Clip-2"></g>
                <polygon id="Fill-1" fill="#AC1A2F" mask="url(#mask-2)" points="0.895 21.94 349.895 21.94 349.895 0 0.895 0"></polygon>
            </g>
            <polyline id="Fill-4" fill="#FFFFFE" points="110.931 82.264 100.536 71.869 110.931 61.475 121.325 71.869 110.931 82.264"></polyline>
            <path d="M62.654,32.531 L71.925,10.777 L81.123,32.531 L62.654,32.531 Z M94.92,47.495 C94.043,45.963 93.24,43.991 92.583,42.532 L74.918,1.069 L72.582,1.069 C70.611,6.325 68.129,11.727 65.866,16.837 L52.872,46.4 C52.069,48.299 50.683,49.831 48.931,49.978 L46.23,50.196 L46.23,52.387 C49.004,52.313 51.777,52.167 54.625,52.167 C56.741,52.167 59.516,52.313 63.019,52.387 L63.019,50.196 L60.318,49.978 C58.056,49.759 56.814,49.467 56.814,47.934 C56.814,46.766 58.712,41.875 59.369,40.342 L61.413,35.451 L82.437,35.451 L85.795,43.846 C86.524,45.598 87.327,47.495 87.327,48.518 C87.327,49.394 85.867,49.904 84.335,49.978 L80.904,50.196 L80.904,52.387 C84.846,52.313 88.058,52.167 90.612,52.167 C93.897,52.167 97.109,52.313 100.321,52.387 L100.321,50.196 L97.839,49.978 C96.525,49.831 95.723,48.883 94.92,47.495 Z" id="Fill-5" fill="#0A0B09"></path>
            <path d="M43.533,36.824 C41.715,41.353 38.529,44.864 33.798,47.058 C29.783,48.955 25.55,49.175 21.899,49.175 C19.418,49.175 15.622,49.102 13.578,48.591 L13.578,5.157 C15.622,4.646 19.418,4.573 21.899,4.573 C35.039,4.573 45.405,7.857 45.405,25.961 C45.405,30.01 44.801,33.664 43.533,36.822 L50.39,36.824 C52.178,32.976 53.216,28.573 53.216,23.917 C53.216,9.756 42.047,1.288 27.082,1.653 C23.87,1.726 19.198,1.872 14.381,1.872 C9.563,1.872 4.891,1.726 0,1.653 L0,3.843 L2.92,4.062 C4.672,4.208 5.548,4.427 5.986,5.157 C6.497,5.96 6.643,7.857 6.643,10.632 L6.643,45.233 C6.643,47.203 6.059,48.883 4.818,49.539 L2.555,50.707 L2.555,52.387 C5.986,52.313 9.198,52.167 12.482,52.167 C15.768,52.167 18.979,52.313 21.899,52.387 C28.396,52.532 33.068,51.656 37.521,49.831 C42.919,47.601 47.58,42.89 50.39,36.831 L43.533,36.824" id="Fill-6" fill="#0A0B09"></path>
            <g id="Group-11" transform="translate(209.000000, 0.000000)" fill="#0A0B09">
                <path d="M140.982,1.872 C138.354,1.872 135.435,1.726 132.515,1.653 L132.515,3.843 L135.727,4.062 C137.479,4.208 138.354,4.427 138.792,5.157 C139.303,5.96 139.449,7.857 139.449,10.632 L139.449,44.722 L139.23,44.722 L104.337,1.653 C103.023,1.726 101.709,1.872 100.396,1.872 C97.768,1.872 94.848,1.726 91.636,1.653 L91.636,3.843 L94.848,4.062 C96.6,4.208 97.476,4.427 97.913,5.157 C98.424,5.96 98.57,7.857 98.57,10.632 L98.57,43.407 C98.57,46.182 98.424,48.079 97.913,48.883 C97.476,49.612 96.6,49.831 94.848,49.978 L91.636,50.196 L91.636,52.387 C94.556,52.313 97.476,52.167 100.104,52.167 C103.023,52.167 105.651,52.313 108.863,52.387 L108.863,50.196 L105.651,49.978 C103.899,49.831 103.023,49.612 102.585,48.883 C102.074,48.079 101.928,46.182 101.928,43.407 L101.928,9.756 L102.074,9.756 L136.456,52.459 L143.026,53.627 C142.953,52.751 142.807,51.803 142.807,50.927 L142.807,10.632 C142.807,7.857 142.953,5.96 143.464,5.157 C143.902,4.427 144.778,4.208 146.53,4.062 L149.742,3.843 L149.742,1.653 C146.53,1.726 143.902,1.872 140.982,1.872" id="Fill-7"></path>
                <path d="M67.639,50.562 C52.029,50.562 45.564,37.13 45.564,24.355 C45.564,12.384 51.793,3.478 65.51,3.478 C80.174,3.478 87.19,13.187 87.19,27.641 C87.19,41.072 80.805,50.562 67.639,50.562 Z M66.771,0.412 C48.481,0.412 37.129,12.019 37.129,27.057 C37.129,43.407 49.112,53.627 65.116,53.627 C82.381,53.627 95.626,41.072 95.626,25.377 C95.626,9.172 83.643,0.412 66.771,0.412 Z" id="Fill-9"></path>
                <path d="M18.391,23.187 C9.266,22.165 6.346,19.1 6.346,14.136 C6.346,6.909 12.039,3.478 17.149,3.478 C19.996,3.478 23.063,3.989 25.106,5.23 C27.807,6.909 28.099,7.639 28.318,9.609 L28.756,13.771 L31.092,13.771 C31.092,10.34 31.384,7.201 32.114,3.478 C29.121,2.31 24.741,0.412 18.901,0.412 C10.142,0.412 0.214,5.595 0.214,16.909 C0.214,24.501 4.739,28.078 16.2,29.393 C23.646,30.269 29.048,32.239 29.048,39.174 C29.048,46.4 22.551,50.415 15.981,50.415 C10.215,50.415 4.447,47.642 4.083,44.575 L3.499,39.685 L1.163,39.685 C1.235,43.115 1.235,47.058 0.651,50.854 C3.061,52.022 8.024,53.627 13.135,53.627 C24.011,53.627 35.18,47.642 35.18,35.159 C35.18,26.837 28.683,24.282 18.391,23.187" id="Fill-10"></path>
            </g>
            <path d="M135.605,1.808 L135.605,1.653 C134.755,1.677 133.915,1.71 133.073,1.742 C132.229,1.716 131.376,1.687 130.5,1.653 L130.5,1.814 C129.581,1.841 128.667,1.872 127.722,1.872 C125.021,1.872 122.466,1.726 119.838,1.653 L119.838,3.843 L123.634,4.062 C125.532,4.208 127.065,4.865 125.532,8.807 L112.174,43.335 L97.793,6.325 C97.136,4.573 98.596,4.135 99.982,4.062 L104.07,3.843 L104.07,1.653 C100.858,1.726 97.646,1.872 94.362,1.872 C91.077,1.872 87.865,1.726 84.653,1.653 L84.653,3.843 L87.281,4.062 C88.522,4.135 89.544,4.719 90.493,7.055 L104.217,40.78 C105.677,44.357 107.282,48.518 108.45,52.824 L112.101,52.824 C113.414,48.371 115.021,44.211 116.772,40.05 L129.474,9.317 C130.934,5.814 131.883,4.208 133.416,4.062 L133.642,4.039 L134.004,4.062 C135.756,4.135 136.632,4.427 137.07,5.157 C137.581,5.96 137.727,7.857 137.727,10.632 L137.727,43.407 C137.727,46.182 137.581,48.079 137.07,48.883 C136.632,49.612 135.756,49.904 134.004,49.978 L130.5,50.196 L130.5,52.387 C134.296,52.24 137.727,52.167 141.304,52.167 C144.662,52.167 148.093,52.24 151.889,52.387 L151.889,50.196 L148.385,49.978 C146.633,49.904 145.757,49.612 145.318,48.883 C144.808,48.079 144.662,46.182 144.662,43.407 L144.662,10.632 C144.662,7.857 144.808,5.96 145.318,5.157 C145.757,4.427 146.633,4.135 148.385,4.062 L151.889,3.843 L151.889,1.653 C148.093,1.799 144.662,1.872 141.304,1.872 C139.39,1.872 137.514,1.85 135.605,1.808" id="Fill-12" fill="#0A0B09"></path>
            <path d="M187.631,47.058 C183.616,48.955 179.382,49.175 175.732,49.175 C173.25,49.175 169.454,49.102 167.41,48.591 L167.41,5.157 C169.454,4.646 173.25,4.573 175.732,4.573 C188.872,4.573 199.238,7.857 199.238,25.961 C199.238,35.816 195.661,43.335 187.631,47.058 Z M180.915,1.653 C177.703,1.726 173.031,1.872 168.214,1.872 C163.396,1.872 158.724,1.726 153.833,1.653 L153.833,3.843 L156.753,4.062 C158.505,4.208 159.381,4.427 159.818,5.157 C160.33,5.96 160.476,7.857 160.476,10.632 L160.476,45.233 C160.476,47.203 159.892,48.883 158.65,49.539 L156.388,50.707 L156.388,52.387 C159.818,52.313 163.03,52.167 166.315,52.167 C169.601,52.167 172.813,52.313 175.732,52.387 C182.229,52.532 186.901,51.656 191.354,49.831 C200.187,46.182 207.049,35.889 207.049,23.917 C207.049,9.756 195.88,1.288 180.915,1.653 Z" id="Fill-13" fill="#0A0B09"></path>
        </g>
    </g>
</svg>